<?xml version="1.0" standalone="no"?>
<!DOCTYPE svg PUBLIC "-//W3C//DTD SVG 20010904//EN"
 "http://www.w3.org/TR/2001/REC-SVG-20010904/DTD/svg10.dtd">
<svg version="1.0" xmlns="http://www.w3.org/2000/svg"
 width="1268.000000pt" height="1280.000000pt" viewBox="0 0 1268.000000 1280.000000"
 preserveAspectRatio="xMidYMid meet">

<metadata>
Created by potrace 1.15, written by Peter Selinger 2001-2017
</metadata>
<style>
 <![CDATA[
    .fil0 {fill:#ece9e5aa}
   ]]></style>
<g transform="translate(0.000000,1280.000000) scale(0.100000,-0.100000)"
stroke="none">
<path class="fil0" d="M3730 12794 c-204 -40 -363 -178 -431 -374 -31 -91 -31 -228 -1 -325
24 -80 80 -173 138 -230 45 -44 143 -110 176 -118 20 -5 47 -62 172 -357 82
-193 147 -352 145 -354 -2 -2 -53 -32 -114 -66 -247 -140 -548 -351 -790 -554
-165 -138 -499 -473 -635 -636 -201 -242 -409 -538 -550 -785 -34 -60 -64
-112 -66 -114 -2 -2 -152 65 -333 150 l-329 154 -12 40 c-22 76 -75 160 -141
226 -256 258 -694 192 -863 -130 -184 -351 48 -773 441 -798 90 -6 178 7 248
37 l45 19 257 -121 c142 -66 290 -135 329 -153 l72 -33 -49 -133 c-174 -472
-282 -980 -320 -1497 -15 -209 -6 -715 16 -912 35 -312 96 -629 174 -900 22
-74 36 -138 33 -142 -4 -3 -124 -55 -266 -116 l-259 -110 -42 19 c-315 139
-681 -40 -760 -372 -62 -266 87 -542 344 -637 81 -30 219 -40 304 -22 152 31
302 150 369 290 20 41 38 82 41 91 3 10 103 58 256 123 138 58 254 106 258
106 4 0 36 -58 70 -128 297 -605 752 -1183 1274 -1619 203 -169 498 -375 701
-489 48 -27 87 -55 85 -62 -1 -7 -60 -138 -132 -292 l-130 -279 -50 -17 c-169
-56 -292 -174 -355 -339 -31 -83 -38 -227 -15 -315 49 -189 204 -347 390 -396
69 -19 219 -18 286 2 151 45 278 151 341 284 42 88 58 156 58 247 0 66 -21
166 -45 213 -11 23 -4 42 91 245 57 121 119 254 139 296 l36 77 140 -49 c365
-128 731 -210 1131 -256 221 -25 809 -25 1033 0 416 47 803 135 1175 267 80
28 152 53 160 56 11 3 24 -18 49 -78 19 -46 90 -212 157 -370 l122 -286 -20
-59 c-100 -296 89 -626 399 -699 139 -33 298 -2 425 83 154 102 238 260 238
448 0 154 -51 279 -160 387 -69 69 -175 130 -247 144 -18 3 -36 11 -42 18 -11
13 -303 698 -299 701 2 1 71 41 153 90 572 338 1071 777 1498 1320 122 155
321 451 417 620 35 61 64 112 66 114 2 2 165 -72 363 -164 l359 -168 12 -41
c36 -122 151 -263 265 -323 242 -127 543 -58 699 160 125 175 139 389 39 579
-123 235 -417 347 -666 255 l-67 -25 -298 140 c-163 77 -325 152 -359 168
l-63 29 26 68 c415 1086 468 2306 148 3392 -19 63 -31 118 -26 122 4 3 163 72
354 153 l347 148 63 -25 c301 -120 625 27 730 331 32 95 32 249 -1 345 -58
170 -196 300 -375 355 -81 24 -217 21 -304 -7 -161 -52 -312 -195 -353 -336
l-13 -45 -341 -145 c-187 -80 -345 -145 -350 -145 -6 0 -47 74 -93 163 -435
861 -1119 1588 -1939 2062 -46 26 -83 49 -83 50 0 1 64 138 143 304 l142 303
62 23 c180 65 312 221 349 414 34 174 -19 345 -149 479 -198 203 -519 219
-738 36 -176 -147 -238 -378 -162 -605 l26 -76 -138 -294 c-75 -162 -138 -295
-140 -297 -1 -1 -40 11 -86 28 -393 146 -788 238 -1229 286 -195 22 -762 25
-950 6 -423 -44 -788 -121 -1170 -249 -107 -36 -201 -66 -208 -67 -8 0 -65
121 -146 310 l-133 312 24 38 c58 96 83 246 59 365 -49 255 -256 434 -511 444
-49 2 -101 1 -115 -1z m2922 -1674 c433 -30 844 -114 1221 -251 74 -26 88 -35
84 -50 -8 -29 -1671 -3579 -1677 -3579 -3 0 -309 714 -680 1588 -371 873 -714
1679 -762 1791 -48 113 -86 207 -84 209 2 2 84 30 182 63 553 185 1161 266
1716 229z m2119 -691 c478 -302 905 -712 1247 -1195 138 -195 400 -655 390
-685 -2 -6 -102 -52 -223 -103 -121 -52 -614 -261 -1095 -466 -481 -205 -1055
-449 -1275 -542 -220 -94 -503 -214 -630 -268 -126 -54 -232 -96 -234 -94 -2
1 144 317 324 701 179 384 545 1165 812 1736 l486 1037 46 -27 c25 -14 94 -57
152 -94z m-4554 -56 c39 -93 369 -869 733 -1726 364 -857 661 -1560 658 -1562
-2 -2 -181 79 -398 181 -217 102 -591 277 -830 389 -1514 708 -2105 986 -2113
994 -6 6 18 54 59 123 363 606 810 1092 1369 1490 152 108 424 278 445 278 3
0 38 -75 77 -167z m-1930 -2477 c291 -136 862 -403 2133 -998 305 -143 653
-306 773 -363 120 -56 218 -106 218 -111 -1 -5 -518 -228 -1149 -497 -631
-268 -1432 -609 -1781 -757 -426 -181 -637 -266 -642 -259 -13 21 -98 382
-123 519 -59 329 -81 612 -73 960 12 513 94 977 256 1452 60 174 69 198 76
198 3 0 143 -65 312 -144z m8402 -91 c116 -417 166 -802 165 -1275 0 -409 -31
-695 -115 -1062 -48 -214 -183 -654 -209 -681 -4 -5 -288 123 -631 283 -343
161 -973 456 -1399 655 -426 200 -918 430 -1092 512 -175 81 -319 152 -320
156 -2 5 22 19 52 32 30 12 161 68 290 123 193 82 1217 517 2545 1082 598 254
680 289 681 287 1 -1 16 -51 33 -112z m-5101 -2053 c-31 -80 -1636 -3492
-1642 -3492 -14 0 -172 97 -326 201 -592 401 -1068 932 -1428 1594 -73 135
-108 212 -100 221 3 2 115 51 249 108 134 57 712 303 1284 546 572 243 1144
486 1270 540 127 54 331 141 455 194 227 97 244 103 238 88z m1877 -280 c281
-131 863 -405 1295 -607 1378 -645 1465 -686 1474 -695 9 -9 -84 -170 -207
-355 -334 -501 -772 -947 -1266 -1289 -174 -120 -372 -239 -382 -229 -6 6
-752 1758 -1430 3357 -25 59 -27 68 -12 63 10 -3 248 -113 528 -245z m-456
-1667 c414 -976 754 -1782 755 -1791 2 -28 -362 -148 -649 -213 -303 -68 -572
-100 -910 -108 -516 -11 -985 59 -1485 223 -74 25 -141 48 -148 53 -9 5 205
472 830 1809 464 991 845 1802 848 1802 3 0 344 -799 759 -1775z"/>
</g>
</svg>
